<svg width="260" height="270" viewBox="0 0 260 270" fill="none" xmlns="http://www.w3.org/2000/svg">
<rect width="260" height="350" rx="50" fill="#FFBECB"/>
<path d="M52.268 183.988C52.268 183.604 52.412 183.28 52.7 183.016C52.988 182.752 53.336 182.62 53.744 182.62C54.152 182.62 54.488 182.752 54.752 183.016C55.04 183.28 55.184 183.604 55.184 183.988V194.104H69.584V183.988C69.584 183.604 69.716 183.28 69.98 183.016C70.268 182.752 70.616 182.62 71.024 182.62C71.432 182.62 71.768 182.752 72.032 183.016C72.296 183.28 72.428 183.604 72.428 183.988V206.776C72.428 207.184 72.296 207.52 72.032 207.784C71.768 208.048 71.432 208.18 71.024 208.18C70.616 208.18 70.268 208.048 69.98 207.784C69.716 207.52 69.584 207.184 69.584 206.776V196.696H55.184V206.776C55.184 207.184 55.04 207.52 54.752 207.784C54.488 208.048 54.152 208.18 53.744 208.18C53.336 208.18 52.988 208.048 52.7 207.784C52.412 207.52 52.268 207.184 52.268 206.776V183.988ZM91.2028 197.308C91.2028 198.364 90.5788 198.892 89.3308 198.892H78.5668C78.5668 199.9 78.6748 200.848 78.8908 201.736C79.1068 202.6 79.4308 203.344 79.8628 203.968C80.2948 204.592 80.8468 205.084 81.5188 205.444C82.1908 205.804 82.9948 205.984 83.9308 205.984C84.9148 205.984 85.7428 205.792 86.4148 205.408C87.0868 205 87.6508 204.46 88.1068 203.788C88.3228 203.476 88.5388 203.26 88.7548 203.14C88.9948 203.02 89.2228 202.96 89.4388 202.96C89.7988 202.96 90.0868 203.08 90.3028 203.32C90.5428 203.56 90.6628 203.848 90.6628 204.184C90.6628 204.424 90.5668 204.712 90.3748 205.048C89.7028 206.08 88.8268 206.896 87.7468 207.496C86.6668 208.096 85.3828 208.396 83.8948 208.396C82.5268 208.396 81.3388 208.144 80.3308 207.64C79.3228 207.136 78.4708 206.452 77.7748 205.588C77.1028 204.7 76.5988 203.68 76.2628 202.528C75.9268 201.352 75.7588 200.104 75.7588 198.784C75.7588 197.488 75.9148 196.264 76.2268 195.112C76.5628 193.936 77.0548 192.916 77.7028 192.052C78.3748 191.188 79.2028 190.504 80.1868 190C81.1708 189.496 82.3228 189.244 83.6428 189.244C84.7468 189.244 85.7668 189.46 86.7028 189.892C87.6388 190.324 88.4428 190.912 89.1148 191.656C89.7868 192.376 90.3028 193.228 90.6628 194.212C91.0468 195.196 91.2268 196.228 91.2028 197.308ZM83.6068 191.656C82.1668 191.656 81.0508 192.112 80.2588 193.024C79.4908 193.936 78.9748 195.124 78.7108 196.588H88.4668C88.4428 195.916 88.2988 195.28 88.0348 194.68C87.7948 194.08 87.4588 193.564 87.0268 193.132C86.5948 192.676 86.0908 192.316 85.5148 192.052C84.9388 191.788 84.3028 191.656 83.6068 191.656ZM104.893 197.128V195.832C104.893 194.68 104.557 193.696 103.885 192.88C103.237 192.064 102.205 191.656 100.789 191.656C99.901 191.656 99.109 191.824 98.413 192.16C97.741 192.496 97.177 192.976 96.721 193.6C96.529 193.912 96.313 194.128 96.073 194.248C95.857 194.368 95.653 194.428 95.461 194.428C95.077 194.428 94.777 194.308 94.561 194.068C94.345 193.828 94.237 193.54 94.237 193.204C94.237 193.084 94.249 192.964 94.273 192.844C94.297 192.7 94.369 192.568 94.489 192.448C95.161 191.44 96.037 190.66 97.117 190.108C98.197 189.532 99.469 189.244 100.933 189.244C102.061 189.244 103.045 189.424 103.885 189.784C104.725 190.12 105.421 190.588 105.973 191.188C106.549 191.764 106.981 192.448 107.269 193.24C107.557 194.032 107.701 194.884 107.701 195.796V206.632C107.701 206.992 107.569 207.304 107.305 207.568C107.041 207.832 106.705 207.964 106.297 207.964C105.889 207.964 105.553 207.832 105.289 207.568C105.025 207.304 104.893 206.992 104.893 206.632V205.948H104.677C104.101 206.716 103.393 207.316 102.553 207.748C101.737 208.18 100.705 208.396 99.457 208.396C98.449 208.396 97.561 208.252 96.793 207.964C96.025 207.676 95.389 207.292 94.885 206.812C94.381 206.308 93.997 205.732 93.733 205.084C93.469 204.412 93.337 203.704 93.337 202.96C93.337 202.168 93.481 201.424 93.769 200.728C94.081 200.008 94.525 199.384 95.101 198.856C95.701 198.328 96.445 197.908 97.333 197.596C98.245 197.284 99.301 197.128 100.501 197.128H104.893ZM100.177 205.984C100.969 205.984 101.665 205.864 102.265 205.624C102.865 205.36 103.357 205.012 103.741 204.58C104.125 204.148 104.413 203.644 104.605 203.068C104.797 202.468 104.893 201.832 104.893 201.16V199.504H100.537C99.025 199.504 97.909 199.816 97.189 200.44C96.493 201.04 96.145 201.808 96.145 202.744C96.145 203.656 96.493 204.424 97.189 205.048C97.885 205.672 98.881 205.984 100.177 205.984ZM119.278 191.836C118.294 191.836 117.466 191.98 116.794 192.268C116.146 192.532 115.618 192.904 115.21 193.384C114.826 193.864 114.55 194.428 114.382 195.076C114.214 195.7 114.13 196.384 114.13 197.128V206.848C114.13 207.232 113.998 207.556 113.734 207.82C113.47 208.06 113.146 208.18 112.762 208.18C112.33 208.18 111.982 208.06 111.718 207.82C111.454 207.556 111.322 207.232 111.322 206.848V190.792C111.322 190.432 111.454 190.12 111.718 189.856C111.982 189.592 112.33 189.46 112.762 189.46C113.146 189.46 113.47 189.592 113.734 189.856C113.998 190.12 114.13 190.432 114.13 190.792V191.512H114.346C114.922 190.816 115.618 190.264 116.434 189.856C117.274 189.448 118.258 189.244 119.386 189.244H119.602C119.938 189.244 120.226 189.364 120.466 189.604C120.706 189.844 120.826 190.156 120.826 190.54C120.826 190.924 120.694 191.236 120.43 191.476C120.19 191.716 119.878 191.836 119.494 191.836H119.278ZM128.097 201.664C128.097 204.16 129.345 205.408 131.841 205.408H132.669C133.053 205.408 133.377 205.528 133.641 205.768C133.905 205.984 134.037 206.296 134.037 206.704C134.037 207.064 133.905 207.376 133.641 207.64C133.377 207.88 133.053 208 132.669 208H131.481C129.465 208 127.929 207.472 126.873 206.416C125.817 205.336 125.289 203.896 125.289 202.096V192.052H123.633C123.249 192.052 122.925 191.932 122.661 191.692C122.421 191.452 122.301 191.14 122.301 190.756C122.301 190.372 122.421 190.06 122.661 189.82C122.925 189.58 123.249 189.46 123.633 189.46H125.289V186.508C125.289 186.052 125.433 185.716 125.721 185.5C126.033 185.26 126.357 185.14 126.693 185.14C127.029 185.14 127.341 185.248 127.629 185.464C127.941 185.68 128.097 186.016 128.097 186.472V189.46H131.697C132.057 189.46 132.369 189.58 132.633 189.82C132.897 190.06 133.029 190.372 133.029 190.756C133.029 191.14 132.897 191.452 132.633 191.692C132.369 191.932 132.057 192.052 131.697 192.052H128.097V201.664ZM136.748 188.884C136.748 187.996 136.904 187.168 137.216 186.4C137.552 185.632 138.02 184.972 138.62 184.42C139.244 183.844 140.012 183.4 140.924 183.088C141.836 182.752 142.88 182.584 144.056 182.584C145.688 182.584 147.116 182.884 148.34 183.484C149.564 184.084 150.584 184.912 151.4 185.968C151.616 186.328 151.724 186.652 151.724 186.94C151.724 187.324 151.592 187.636 151.328 187.876C151.064 188.116 150.74 188.236 150.356 188.236C150.092 188.236 149.852 188.176 149.636 188.056C149.444 187.912 149.24 187.708 149.024 187.444C148.472 186.748 147.776 186.208 146.936 185.824C146.096 185.416 145.124 185.212 144.02 185.212C142.58 185.212 141.488 185.548 140.744 186.22C140.024 186.868 139.664 187.672 139.664 188.632C139.664 189.232 139.808 189.76 140.096 190.216C140.384 190.672 140.768 191.08 141.248 191.44C141.728 191.8 142.28 192.124 142.904 192.412C143.552 192.676 144.212 192.94 144.884 193.204C145.796 193.564 146.708 193.948 147.62 194.356C148.556 194.764 149.396 195.28 150.14 195.904C150.884 196.504 151.484 197.236 151.94 198.1C152.396 198.964 152.624 200.008 152.624 201.232C152.624 202.264 152.444 203.224 152.084 204.112C151.724 205 151.196 205.756 150.5 206.38C149.828 207.004 149 207.496 148.016 207.856C147.032 208.216 145.916 208.396 144.668 208.396C142.748 208.396 141.08 208 139.664 207.208C138.248 206.392 137.084 205.3 136.172 203.932C135.956 203.572 135.848 203.248 135.848 202.96C135.848 202.576 135.98 202.264 136.244 202.024C136.532 201.76 136.88 201.628 137.288 201.628C137.768 201.628 138.2 201.916 138.584 202.492C139.232 203.5 140.072 204.292 141.104 204.868C142.136 205.444 143.336 205.732 144.704 205.732C146.312 205.732 147.548 205.36 148.412 204.616C149.276 203.848 149.708 202.816 149.708 201.52C149.708 200.68 149.528 199.972 149.168 199.396C148.832 198.796 148.376 198.28 147.8 197.848C147.224 197.392 146.564 197.008 145.82 196.696C145.076 196.36 144.308 196.036 143.516 195.724C142.676 195.412 141.848 195.076 141.032 194.716C140.24 194.332 139.52 193.876 138.872 193.348C138.248 192.82 137.732 192.196 137.324 191.476C136.94 190.756 136.748 189.892 136.748 188.884ZM161.401 206.884C161.017 207.196 160.633 207.352 160.249 207.352C159.673 207.352 159.277 207.052 159.061 206.452L153.697 191.044C153.577 190.66 153.613 190.3 153.805 189.964C154.021 189.604 154.321 189.388 154.705 189.316C155.065 189.22 155.401 189.256 155.713 189.424C156.025 189.592 156.241 189.844 156.361 190.18L161.257 204.544C161.401 204.88 161.557 205.048 161.725 205.048C161.917 205.048 162.073 204.88 162.193 204.544L167.125 190.18C167.221 189.916 167.377 189.7 167.593 189.532C167.833 189.364 168.097 189.28 168.385 189.28C168.553 189.28 168.673 189.292 168.745 189.316C169.129 189.388 169.417 189.604 169.609 189.964C169.825 190.3 169.873 190.66 169.753 191.044L163.201 209.908C162.961 210.628 162.685 211.288 162.373 211.888C162.085 212.488 161.725 213.004 161.293 213.436C160.861 213.868 160.321 214.204 159.673 214.444C159.025 214.708 158.221 214.84 157.261 214.84H156.109C155.725 214.84 155.401 214.72 155.137 214.48C154.873 214.24 154.741 213.928 154.741 213.544C154.741 213.16 154.873 212.848 155.137 212.608C155.401 212.368 155.725 212.248 156.109 212.248H156.973C157.525 212.248 157.981 212.188 158.341 212.068C158.701 211.972 159.001 211.816 159.241 211.6C159.481 211.408 159.673 211.156 159.817 210.844C159.985 210.556 160.141 210.208 160.285 209.8C160.477 209.32 160.657 208.828 160.825 208.324C161.017 207.844 161.209 207.364 161.401 206.884ZM172.564 190.792C172.564 190.432 172.696 190.12 172.96 189.856C173.224 189.592 173.572 189.46 174.004 189.46C174.388 189.46 174.712 189.592 174.976 189.856C175.24 190.12 175.372 190.432 175.372 190.792V191.188H175.624C176.224 190.588 176.944 190.12 177.784 189.784C178.624 189.424 179.62 189.244 180.772 189.244C181.948 189.244 182.968 189.412 183.832 189.748C184.696 190.084 185.404 190.552 185.956 191.152C186.532 191.728 186.952 192.412 187.216 193.204C187.504 193.972 187.648 194.812 187.648 195.724V206.848C187.648 207.232 187.516 207.556 187.252 207.82C186.988 208.06 186.664 208.18 186.28 208.18C185.872 208.18 185.536 208.06 185.272 207.82C185.008 207.556 184.876 207.232 184.876 206.848V195.832C184.876 194.68 184.48 193.696 183.688 192.88C182.896 192.064 181.696 191.656 180.088 191.656C178.48 191.656 177.292 192.052 176.524 192.844C175.756 193.636 175.372 194.596 175.372 195.724V206.848C175.372 207.232 175.24 207.556 174.976 207.82C174.712 208.06 174.388 208.18 174.004 208.18C173.572 208.18 173.224 208.06 172.96 207.82C172.696 207.556 172.564 207.232 172.564 206.848V190.792ZM205.09 192.592C205.282 192.88 205.378 193.168 205.378 193.456C205.378 193.792 205.258 194.08 205.018 194.32C204.802 194.56 204.514 194.68 204.154 194.68C203.938 194.68 203.71 194.62 203.47 194.5C203.254 194.38 203.038 194.164 202.822 193.852C202.366 193.156 201.802 192.616 201.13 192.232C200.458 191.848 199.63 191.656 198.646 191.656C197.71 191.656 196.906 191.836 196.234 192.196C195.562 192.556 194.998 193.06 194.542 193.708C194.11 194.356 193.786 195.112 193.57 195.976C193.378 196.84 193.282 197.776 193.282 198.784C193.282 199.816 193.378 200.776 193.57 201.664C193.786 202.528 194.11 203.284 194.542 203.932C194.998 204.58 195.562 205.084 196.234 205.444C196.906 205.804 197.71 205.984 198.646 205.984C199.63 205.984 200.458 205.792 201.13 205.408C201.802 205 202.366 204.46 202.822 203.788C203.038 203.476 203.254 203.26 203.47 203.14C203.71 203.02 203.938 202.96 204.154 202.96C204.514 202.96 204.802 203.08 205.018 203.32C205.258 203.56 205.378 203.848 205.378 204.184C205.378 204.424 205.282 204.712 205.09 205.048C204.418 206.08 203.542 206.896 202.462 207.496C201.382 208.096 200.098 208.396 198.61 208.396C197.242 208.396 196.054 208.144 195.046 207.64C194.038 207.136 193.186 206.452 192.49 205.588C191.818 204.7 191.314 203.68 190.978 202.528C190.642 201.352 190.474 200.104 190.474 198.784C190.474 197.488 190.642 196.264 190.978 195.112C191.314 193.936 191.818 192.916 192.49 192.052C193.186 191.188 194.038 190.504 195.046 190C196.054 189.496 197.242 189.244 198.61 189.244C200.098 189.244 201.382 189.544 202.462 190.144C203.542 190.744 204.418 191.56 205.09 192.592Z" fill="#BE2346"/>
<circle cx="130" cy="100" r="54" fill="white" stroke="#BE2346" stroke-width="4" stroke-dasharray="10 10"/>
<path d="M129.15 78.8043V131.406L129.09 131.436V131.509C115.268 123.334 100.064 108.909 90.6938 94.8788C98.6893 84.2361 107.553 76.7127 117.329 72.021C120.843 73.7587 124.546 75.7816 129.15 78.8043Z" fill="#FB3965"/>
<path d="M170 94.8791C167.964 97.979 165.508 101.227 162.749 104.488C152.518 92.3691 139.143 82.6296 132.529 78.1696C136.755 75.443 140.097 73.6367 143.371 72.0234C153.143 76.7151 162.007 84.2386 170 94.8791Z" fill="#BE2346"/>
<path d="M161.17 106.318C152.621 116.055 141.631 125.668 131.585 131.522L131.548 130.336H131.544V80.3965C138.22 84.9037 151.313 94.5724 161.17 106.318Z" fill="#FF92A7"/>
</svg>
