<svg width="1691" height="38" viewBox="0 0 1691 38" fill="none" xmlns="http://www.w3.org/2000/svg">
<g clip-path="url(#clip0_227_889)">
<g clip-path="url(#clip1_227_889)">
<circle cx="1668" cy="8.99993" r="29" transform="rotate(180 1668 8.99993)" fill="#FFE7EB"/>
<ellipse cx="1622.5" cy="8.99993" rx="28.5" ry="29" transform="rotate(180 1622.5 8.99993)" fill="#FFE7EB"/>
<circle cx="1577" cy="8.99994" r="29" transform="rotate(180 1577 8.99994)" fill="#FFE7EB"/>
<ellipse cx="1531.5" cy="8.99994" rx="28.5" ry="29" transform="rotate(180 1531.5 8.99994)" fill="#FFE7EB"/>
<circle cx="1486" cy="8.99994" r="29" transform="rotate(180 1486 8.99994)" fill="#FFE7EB"/>
<ellipse cx="1440.5" cy="8.99994" rx="28.5" ry="29" transform="rotate(180 1440.5 8.99994)" fill="#FFE7EB"/>
<circle cx="1395" cy="8.99996" r="29" transform="rotate(180 1395 8.99996)" fill="#FFE7EB"/>
<circle cx="1349" cy="8.99996" r="29" transform="rotate(180 1349 8.99996)" fill="#FFE7EB"/>
<ellipse cx="1303.5" cy="8.99996" rx="28.5" ry="29" transform="rotate(180 1303.5 8.99996)" fill="#FFE7EB"/>
<circle cx="1258" cy="8.99996" r="29" transform="rotate(180 1258 8.99996)" fill="#FFE7EB"/>
<ellipse cx="1212.5" cy="8.99997" rx="28.5" ry="29" transform="rotate(180 1212.5 8.99997)" fill="#FFE7EB"/>
<circle cx="1167" cy="8.99997" r="29" transform="rotate(180 1167 8.99997)" fill="#FFE7EB"/>
<ellipse cx="1121.5" cy="8.99997" rx="28.5" ry="29" transform="rotate(180 1121.5 8.99997)" fill="#FFE7EB"/>
<circle cx="1076" cy="8.99997" r="29" transform="rotate(180 1076 8.99997)" fill="#FFE7EB"/>
<ellipse cx="1030.5" cy="8.99999" rx="28.5" ry="29" transform="rotate(180 1030.5 8.99999)" fill="#FFE7EB"/>
<circle cx="985" cy="8.99999" r="29" transform="rotate(180 985 8.99999)" fill="#FFE7EB"/>
<circle cx="939" cy="8.99999" r="29" transform="rotate(180 939 8.99999)" fill="#FFE7EB"/>
<ellipse cx="893.5" cy="8.99999" rx="28.5" ry="29" transform="rotate(180 893.5 8.99999)" fill="#FFE7EB"/>
<circle cx="848" cy="9" r="29" transform="rotate(180 848 9)" fill="#FFE7EB"/>
<ellipse cx="802.5" cy="9" rx="28.5" ry="29" transform="rotate(180 802.5 9)" fill="#FFE7EB"/>
<circle cx="757" cy="9" r="29" transform="rotate(180 757 9)" fill="#FFE7EB"/>
<ellipse cx="711.5" cy="9" rx="28.5" ry="29" transform="rotate(180 711.5 9)" fill="#FFE7EB"/>
<circle cx="666" cy="9.00002" r="29" transform="rotate(180 666 9.00002)" fill="#FFE7EB"/>
<circle cx="620" cy="9.00002" r="29" transform="rotate(180 620 9.00002)" fill="#FFE7EB"/>
<circle cx="574" cy="9.00002" r="29" transform="rotate(180 574 9.00002)" fill="#FFE7EB"/>
<circle cx="528" cy="9.00003" r="29" transform="rotate(180 528 9.00003)" fill="#FFE7EB"/>
<circle cx="482" cy="9.00003" r="29" transform="rotate(180 482 9.00003)" fill="#FFE7EB"/>
<circle cx="436" cy="9.00003" r="29" transform="rotate(180 436 9.00003)" fill="#FFE7EB"/>
<circle cx="390" cy="9.00003" r="29" transform="rotate(180 390 9.00003)" fill="#FFE7EB"/>
<circle cx="344" cy="9.00005" r="29" transform="rotate(180 344 9.00005)" fill="#FFE7EB"/>
<circle cx="298" cy="9.00005" r="29" transform="rotate(180 298 9.00005)" fill="#FFE7EB"/>
<circle cx="252" cy="9.00005" r="29" transform="rotate(180 252 9.00005)" fill="#FFE7EB"/>
<circle cx="206" cy="9.00005" r="29" transform="rotate(180 206 9.00005)" fill="#FFE7EB"/>
<circle cx="160" cy="9.00006" r="29" transform="rotate(180 160 9.00006)" fill="#FFE7EB"/>
<circle cx="114" cy="9.00006" r="29" transform="rotate(180 114 9.00006)" fill="#FFE7EB"/>
<circle cx="68" cy="9.00006" r="29" transform="rotate(180 68 9.00006)" fill="#FFE7EB"/>
<circle cx="22" cy="9.00006" r="29" transform="rotate(180 22 9.00006)" fill="#FFE7EB"/>
</g>
</g>
<defs>
<clipPath id="clip0_227_889">
<rect width="1691" height="38" fill="white"/>
</clipPath>
<clipPath id="clip1_227_889">
<rect width="1704" height="38" fill="white" transform="translate(1697 37.9999) rotate(180)"/>
</clipPath>
</defs>
</svg>
